<svg xmlns="http://www.w3.org/2000/svg">
  <defs>
    <symbol id='search' viewBox='0 0 18 18' fill='none'>
      <path
        d="M8.1111 15.2222C12.0385 15.2222 15.2222 12.0385 15.2222 8.1111C15.2222 4.18375 12.0385 1 8.1111 1C4.18375 1 1 4.18375 1 8.1111C1 12.0385 4.18375 15.2222 8.1111 15.2222Z"
        stroke="currentColor" stroke-width="1.5" stroke-linecap="round" stroke-linejoin="round" />
      <path d="M17 17.0002L13.1333 13.1335" stroke="currentColor" stroke-width="1.5" stroke-linecap="round"
        stroke-linejoin="round" />
    </symbol>
    <symbol id='menu' viewBox='0 0 20 16' fill="none">
      <path d="M1 1.00098H19" stroke="currentColor" stroke-width="2" stroke-linecap="round" />
      <path d="M1 8.00098H19" stroke="currentColor" stroke-width="2" stroke-linecap="round" />
      <path d="M1 15.001H19" stroke="currentColor" stroke-width="2" stroke-linecap="round" />
    </symbol>
    <symbol id='globe' viewBox='0 0 16 16'>
      <path
        d="M16.0003 8C16.0178 5.93838 15.2326 3.95079 13.8109 2.45774C12.3891 0.96469 10.4423 0.0832868 8.38229 0L7.86529 0C5.76147 0.0179584 3.75096 0.870888 2.27599 2.37117C0.801033 3.87145 -0.0175598 5.89619 0.000285772 8C-0.0175598 10.1038 0.801033 12.1286 2.27599 13.6288C3.75096 15.1291 5.76147 15.982 7.86529 16H8.38229C10.4423 15.9167 12.3891 15.0353 13.8109 13.5423C15.2326 12.0492 16.0178 10.0616 16.0003 8ZM8.13529 14.777C7.4437 14.2709 6.86133 13.6304 6.423 12.894C5.98468 12.1575 5.69942 11.3402 5.58429 10.491H10.6633C10.5509 11.3384 10.2692 12.1546 9.83488 12.8909C9.40058 13.6272 8.82258 14.2687 8.13529 14.777ZM5.39329 9.349C5.34462 8.90093 5.31858 8.45069 5.31529 8C5.31862 7.542 5.34495 7.085 5.39429 6.629H10.8553C10.904 7.08433 10.9303 7.54133 10.9343 8C10.931 8.45438 10.9047 8.9083 10.8553 9.36L5.39329 9.349ZM1.39329 8C1.39291 7.53966 1.43813 7.08042 1.52829 6.629H4.22829C4.13843 7.53712 4.13843 8.45188 4.22829 9.36H1.52829C1.43723 8.91243 1.392 8.45674 1.39329 8ZM8.13529 1.143C8.82522 1.65883 9.4045 2.308 9.83876 3.05198C10.273 3.79596 10.5534 4.61959 10.6633 5.474H5.58429C5.69692 4.6178 5.98085 3.79305 6.41913 3.04895C6.85741 2.30485 7.44107 1.65665 8.13529 1.143ZM12.0353 6.572H14.7353C14.8313 7.04188 14.8785 7.52042 14.8763 8C14.8772 8.45677 14.8317 8.91246 14.7403 9.36H12.0403C12.0776 8.908 12.0926 8.45467 12.0853 8C12.0863 7.53816 12.064 7.07657 12.0183 6.617L12.0353 6.572ZM14.3953 5.429H11.8403C11.5801 3.98702 10.9878 2.62542 10.1103 1.452C11.0776 1.76054 11.9634 2.28214 12.7023 2.97838C13.4413 3.67463 14.0147 4.52778 14.3803 5.475L14.3953 5.429ZM6.13529 1.451C5.25128 2.63787 4.65867 4.01594 4.40529 5.474H1.86529C2.23085 4.52678 2.80424 3.67363 3.54323 2.97738C4.28222 2.28114 5.16799 1.75954 6.13529 1.451ZM1.86529 10.491H4.40429C4.65768 11.9524 5.25021 13.3341 6.13429 14.525C5.16587 14.2153 4.27939 13.692 3.54033 12.9938C2.80126 12.2956 2.22848 11.4403 1.86429 10.491H1.86529ZM10.1123 14.525C10.9964 13.3341 11.5889 11.9524 11.8423 10.491H14.3813C14.0171 11.4403 13.4443 12.2956 12.7052 12.9938C11.9662 13.692 11.0797 14.2153 10.1113 14.525H10.1123Z"
        fill="currentColor" />
    </symbol>
    <symbol id='arrow-down' viewBox='0 0 9 5' fill='none'>
      <path d="M1.20001 0.800049L4.41837 4.00005L7.60001 0.800049" stroke="currentColor" stroke-linecap="round"
        stroke-linejoin="round" />
    </symbol>
    <symbol id='email' viewBox='0 0 20 20' fill='currentColor'>
      <g transform="translate(1 4)">
        <path d="M-845.776,1632.72l-9-7.8v10.556h18v-10.555Z" transform="translate(854.776 -1623.648)"></path>
        <path d="M-836.832,1623.648h-17.89l8.945,7.508Z" transform="translate(854.776 -1623.648)">
        </path>
      </g>
    </symbol>
    <symbol id='line' viewBox='0 0 20 20' fill='currentColor'>
      <path
        d="M-803.918,1642.033c0-3.748-3.588-6.8-8-6.8s-8,3.048-8,6.8c0,3.36,2.845,6.173,6.686,6.705.261.059.615.18.7.413a1.776,1.776,0,0,1,.026.757s-.1.591-.114.717c-.035.212-.161.828.693.451a25.922,25.922,0,0,0,6.286-4.863,6.183,6.183,0,0,0,1.719-4.181Zm-10.831,1.993a.16.16,0,0,1-.156.163h-2.242a.152.152,0,0,1-.107-.045.168.168,0,0,1-.044-.113v-3.649a.159.159,0,0,1,.156-.163h.562a.16.16,0,0,1,.156.163v2.9h1.528l-.009-.007h0a.16.16,0,0,1,.156.163Zm1.361.008a.159.159,0,0,1-.156.162h-.561a.16.16,0,0,1-.157-.162v-3.65h0a.159.159,0,0,1,.157-.162h.561a.16.16,0,0,1,.156.163Zm3.861-.015a.159.159,0,0,1-.156.162h-.561a.143.143,0,0,1-.04-.006h-.026l-.01-.006a.176.176,0,0,1-.04-.041l-1.6-2.262v2.2a.159.159,0,0,1-.156.162h-.562a.16.16,0,0,1-.156-.162v-3.65a.159.159,0,0,1,.156-.163h.63l.008.005h0l.008.006.009.008.01.01.012.016,1.6,2.259v-2.168a.16.16,0,0,1,.156-.163h.561v-.015h0a.159.159,0,0,1,.156.163Zm3.1-1.529a.16.16,0,0,1-.156.163h-1.528v.616h1.528a.16.16,0,0,1,.156.164v.587a.16.16,0,0,1-.156.164h-2.242a.158.158,0,0,1-.108-.045.168.168,0,0,1-.044-.113v-3.648a.165.165,0,0,1,.043-.112.151.151,0,0,1,.108-.046h2.243a.159.159,0,0,1,.155.164v.589a.158.158,0,0,1-.156.161l-1.527-.012v.617h1.528a.16.16,0,0,1,.156.164Z"
        transform="translate(821.916 -1632.95)"></path>
    </symbol>
    <symbol id='facebook' viewBox='0 0 20 20' fill='currentColor'>
      <g transform="translate(6 1)">
        <path
          d="M-742.7,3557.872v8.326a.217.217,0,0,0,.217.217h3.092a.217.217,0,0,0,.217-.217v-8.461h2.242a.217.217,0,0,0,.216-.2l.216-2.55a.217.217,0,0,0-.216-.235h-2.457v-1.808a.768.768,0,0,1,.767-.768h1.727a.217.217,0,0,0,.217-.217v-2.549a.217.217,0,0,0-.217-.217H-739.6a3.1,3.1,0,0,0-3.1,3.1v2.458h-1.546a.217.217,0,0,0-.217.217v2.55a.217.217,0,0,0,.217.217h1.546Z"
          transform="translate(744.461 -3549.195)"></path>
      </g>
    </symbol>
    <symbol id='dark-mode' viewBox='0 0 20 20' fill='currentColor'>
      <path
        d="M14.349,11.031,16.69,8.69,14.349,6.349V3.031H11.031L8.69.69,6.349,3.031H3.031V6.349L.69,8.69l2.341,2.341v3.317H6.349L8.69,16.69l2.341-2.341h3.317Zm-5.659,1.9V4.446a4.244,4.244,0,0,1,0,8.488Z"
        transform="translate(1.31 1.31)"></path>
    </symbol>
    <symbol id='modal-close' viewBox="0 0 26 26" fill='none'>
      <path d="M18.982 7.61298L7.85596 18.739" stroke="currentColor" stroke-miterlimit="10" stroke-linecap="round" />
      <path d="M18.982 18.739L7.85596 7.61298" stroke="currentColor" stroke-miterlimit="10" stroke-linecap="round" />
      <path
        d="M20 1H6C3.23858 1 1 3.23858 1 6V20C1 22.7614 3.23858 25 6 25H20C22.7614 25 25 22.7614 25 20V6C25 3.23858 22.7614 1 20 1Z"
        stroke="currentColor" stroke-miterlimit="10" />
    </symbol>
    <symbol id='eth' viewBox='0 0 25 25' fill='currentColor'>
      <g transform="translate(7.001 4)">
        <path d="M448.636,509.484l5.275,7.432,5-7.635-5.078,3.336Z" transform="translate(-448.612 -499.916)" />
        <path d="M458.854,493.746l-5.3-8.31-4.975,8.5,5.2,2.854Z" transform="translate(-448.58 -485.436)" />
      </g>
      <path d="M0,0H25V25H0V0Z" fill='none' />
    </symbol>
  </defs>
</svg>