<svg width="30" height="30" viewBox="0 0 30 30" fill="none" xmlns="http://www.w3.org/2000/svg">
  <path
    d="M14.5743 28C12.0047 27.9158 9.51769 27.0713 7.42782 25.5733C5.33796 24.0754 3.73908 21.9912 2.83336 19.5843C1.92765 17.1774 1.75575 14.556 2.33944 12.0514C2.92313 9.5468 4.23618 7.27158 6.11255 5.51342C7.98892 3.75526 10.3444 2.59311 12.881 2.17391C15.4177 1.75472 18.0216 2.09733 20.3636 3.15839C22.7056 4.21945 24.6805 5.95132 26.0386 8.13502C27.3966 10.3187 28.0768 12.8562 27.9931 15.4266L25.4312 15.342C25.4982 13.2786 24.9521 11.2415 23.8617 9.48854C22.7714 7.73555 21.1859 6.34532 19.3057 5.49363C17.4255 4.64195 15.335 4.36706 13.2986 4.70373C11.2623 5.04041 9.37141 5.97352 7.86519 7.38508C6.35896 8.79663 5.305 10.6232 4.83659 12.6339C4.36817 14.6446 4.50633 16.7491 5.2336 18.6813C5.96087 20.6134 7.24457 22.2865 8.92241 23.4889C10.6002 24.6913 12.5969 25.369 14.6598 25.4364L14.5743 28Z"
    fill="url(#paint0_linear_520_3547)" />
  <path
    d="M17.8158 27.6999L17.2188 25.1549C17.8851 24.9986 18.5347 24.778 19.1585 24.4964L20.232 26.8779C19.4546 27.2283 18.6456 27.5036 17.8158 27.6999ZM22.4884 25.5775L21.6908 24.5419L20.959 23.4617C21.5083 23.0684 22.0195 22.6244 22.4856 22.1353L24.3771 23.9391C23.7999 24.5429 23.1676 25.0914 22.4884 25.5775ZM25.952 21.9319L23.7513 20.5238C24.1187 19.9474 24.4297 19.3368 24.6798 18.7006L27.109 19.6582C26.7971 20.452 26.4087 21.2135 25.9492 21.9319H25.952Z"
    fill="#2B62F6" />
  <path
    d="M14.4911 11.6156C14.5355 11.4075 14.6498 11.2211 14.8151 11.0873C14.9804 10.9535 15.1866 10.8805 15.3992 10.8805C15.6119 10.8805 15.8181 10.9535 15.9834 11.0873C16.1487 11.2211 16.263 11.4075 16.3074 11.6156L17.4839 17.1086C17.513 17.2441 17.5114 17.3843 17.4793 17.5191C17.4471 17.6539 17.3853 17.7798 17.2982 17.8875C17.2111 17.9953 17.101 18.0822 16.976 18.1419C16.851 18.2016 16.7143 18.2325 16.5757 18.2325H14.2218C14.0833 18.2325 13.9465 18.2016 13.8215 18.1419C13.6965 18.0822 13.5864 17.9953 13.4994 17.8875C13.4123 17.7798 13.3504 17.6539 13.3183 17.5191C13.2862 17.3843 13.2846 17.2441 13.3137 17.1086L14.4911 11.6156Z"
    fill="#2B62F6" />
  <defs>
    <linearGradient id="paint0_linear_520_3547" x1="35.774" y1="-0.287999" x2="2.546" y2="18.094"
      gradientUnits="userSpaceOnUse">
      <stop stop-color="white" />
      <stop offset="0.87" stop-color="#2B62F6" />
    </linearGradient>
  </defs>
</svg>