<svg width="30" height="30" viewBox="0 0 30 30" fill="none" xmlns="http://www.w3.org/2000/svg">
  <path d="M27 27H3V3H27V27ZM4.62174 25.3783H25.3783V4.62174H4.62174V25.3783Z" fill="url(#paint0_linear_471_2760)" />
  <path d="M7.90905 6.76221L6.76172 7.90955L22.0892 23.237L23.2365 22.0897L7.90905 6.76221Z"
    fill="url(#paint1_linear_471_2760)" />
  <path d="M22.0892 6.76191L6.76172 22.0894L7.90905 23.2367L23.2365 7.90924L22.0892 6.76191Z"
    fill="url(#paint2_linear_471_2760)" />
  <path
    d="M15 23.1787C13.3822 23.1787 11.8007 22.6989 10.4555 21.8001C9.11035 20.9013 8.06193 19.6238 7.44285 18.1291C6.82378 16.6344 6.66187 14.9896 6.97756 13.4029C7.29324 11.8162 8.07232 10.3587 9.21636 9.21479C10.3604 8.07087 11.818 7.29193 13.4048 6.97641C14.9915 6.66089 16.6362 6.82299 18.1308 7.44223C19.6255 8.06146 20.9029 9.10994 21.8016 10.4552C22.7003 11.8005 23.1799 13.382 23.1797 14.9999C23.1772 17.1684 22.3146 19.2475 20.7811 20.7808C19.2477 22.3141 17.1686 23.1765 15 23.1787ZM15 8.44355C13.7033 8.44355 12.4357 8.82805 11.3575 9.54846C10.2794 10.2689 9.43903 11.2929 8.9428 12.4909C8.44657 13.6889 8.31671 15.0071 8.56969 16.2789C8.82266 17.5507 9.4471 18.719 10.364 19.6359C11.2809 20.5528 12.4492 21.1772 13.721 21.4301C14.9928 21.6831 16.311 21.5533 17.509 21.0571C18.707 20.5609 19.7309 19.7205 20.4513 18.6423C21.1718 17.5641 21.5563 16.2966 21.5563 14.9999C21.5545 13.2616 20.8632 11.595 19.634 10.3658C18.4049 9.1367 16.7383 8.44537 15 8.44355Z"
    fill="url(#paint3_linear_471_2760)" />
  <path
    d="M14.999 19.7733C14.0549 19.7733 13.132 19.4934 12.347 18.9688C11.562 18.4443 10.9501 17.6987 10.5889 16.8264C10.2276 15.9541 10.1331 14.9943 10.3174 14.0683C10.5016 13.1423 10.9563 12.2917 11.624 11.6242C12.2917 10.9566 13.1423 10.5022 14.0683 10.3181C14.9943 10.134 15.9541 10.2286 16.8263 10.59C17.6986 10.9514 18.444 11.5635 18.9684 12.3486C19.4928 13.1337 19.7726 14.0566 19.7725 15.0008C19.7709 16.2662 19.2674 17.4793 18.3725 18.374C17.4777 19.2687 16.2644 19.772 14.999 19.7733ZM14.999 11.8499C14.376 11.8499 13.767 12.0346 13.249 12.3807C12.731 12.7268 12.3273 13.2187 12.0889 13.7942C11.8504 14.3698 11.788 15.0031 11.9095 15.6141C12.031 16.2251 12.3309 16.7863 12.7713 17.2269C13.2118 17.6675 13.773 17.9676 14.384 18.0893C14.995 18.2109 15.6283 18.1486 16.2039 17.9104C16.7795 17.6721 17.2715 17.2684 17.6177 16.7505C17.964 16.2326 18.1488 15.6237 18.149 15.0008C18.1481 14.1655 17.816 13.3647 17.2255 12.774C16.6349 12.1833 15.8342 11.851 14.999 11.8499Z"
    fill="url(#paint4_linear_471_2760)" />
  <defs>
    <linearGradient id="paint0_linear_471_2760" x1="41.664" y1="-6.384" x2="1.272" y2="25.992"
      gradientUnits="userSpaceOnUse">
      <stop offset="0.102" stop-color="#E6EDFE" />
      <stop offset="0.87" stop-color="#2B62F6" />
    </linearGradient>
    <linearGradient id="paint1_linear_471_2760" x1="18.7457" y1="-19.0033" x2="-9.81358" y2="9.81363"
      gradientUnits="userSpaceOnUse">
      <stop offset="0.102" stop-color="#E6EDFE" />
      <stop offset="0.87" stop-color="#2B62F6" />
    </linearGradient>
    <linearGradient id="paint2_linear_471_2760" x1="18.7504" y1="-19.0163" x2="41.7055" y2="4.26219"
      gradientUnits="userSpaceOnUse">
      <stop offset="0.102" stop-color="#E6EDFE" />
      <stop offset="0.87" stop-color="#2B62F6" />
    </linearGradient>
    <linearGradient id="paint3_linear_471_2760" x1="41.6986" y1="-6.41542" x2="1.25814" y2="26.0089"
      gradientUnits="userSpaceOnUse">
      <stop offset="0.102" stop-color="#E6EDFE" />
      <stop offset="0.87" stop-color="#2B62F6" />
    </linearGradient>
    <linearGradient id="paint4_linear_471_2760" x1="41.7016" y1="-6.40423" x2="1.26105" y2="26.0169"
      gradientUnits="userSpaceOnUse">
      <stop offset="0.102" stop-color="#E6EDFE" />
      <stop offset="0.87" stop-color="#2B62F6" />
    </linearGradient>
  </defs>
</svg>