<svg width="570" height="466" viewBox="0 0 570 466" fill="none" xmlns="http://www.w3.org/2000/svg">
<path opacity="0.3" d="M199.979 41.7985C224.757 31.3635 249.379 20.5694 273.589 9.03638C316.515 -11.3976 368.623 3.83645 394.736 44.5125L554.056 292.688C561.499 304.169 566.403 317.107 568.438 330.637C570.473 344.167 569.593 357.976 565.856 371.137C562.15 384.501 555.671 396.933 546.841 407.626C538.011 418.318 527.027 427.031 514.606 433.196C396.949 491.504 274.406 539.379 148.383 576.272C139.384 578.916 130.056 580.265 120.677 580.279C102.553 580.246 84.801 575.134 69.4357 565.522C57.7556 558.389 47.7291 548.849 40.0246 537.538C32.3201 526.226 27.1139 513.403 24.7531 499.922L-26.9657 212.514L-27.4578 209.789C-36.0458 162.028 -8.00752 115.333 37.7785 101.172C58.4738 94.7665 79.0914 87.9455 99.63 80.7095C116.493 74.7895 133.268 68.5764 149.954 62.0704C166.718 55.5558 183.393 48.7985 199.979 41.7985Z" fill="url(#paint0_linear_104_774)"/>
<defs>
<linearGradient id="paint0_linear_104_774" x1="-29" y1="290.14" x2="569.506" y2="290.14" gradientUnits="userSpaceOnUse">
<stop stop-color="white"/>
<stop offset="0.805" stop-color="#2B62F6"/>
</linearGradient>
</defs>
</svg>
