<svg width="456" height="582" viewBox="0 0 456 582" fill="none" xmlns="http://www.w3.org/2000/svg">
<path opacity="0.3" d="M229.072 42.61C253.85 32.175 278.473 21.3809 302.683 9.8479C345.609 -10.5861 397.717 4.64798 423.83 45.324L583.15 293.5C590.593 304.98 595.496 317.919 597.531 331.449C599.567 344.979 598.686 358.787 594.949 371.949C591.244 385.312 584.765 397.745 575.935 408.437C567.105 419.13 556.121 427.843 543.699 434.008C426.043 492.315 303.499 540.191 177.477 577.084C168.478 579.727 159.149 581.076 149.771 581.091C131.647 581.058 113.895 575.946 98.5295 566.334C86.8494 559.201 76.8228 549.661 69.1183 538.349C61.4138 527.038 56.2076 514.215 53.8468 500.734L2.12809 213.326L1.6359 210.601C-6.9521 162.84 21.0862 116.145 66.8722 101.984C87.5676 95.578 108.185 88.757 128.724 81.521C145.587 75.601 162.361 69.388 179.048 62.882C195.812 56.3673 212.487 49.61 229.072 42.61Z" fill="url(#paint0_linear_90_2205)"/>
<defs>
<linearGradient id="paint0_linear_90_2205" x1="0.09375" y1="290.951" x2="598.599" y2="290.951" gradientUnits="userSpaceOnUse">
<stop stop-color="white"/>
<stop offset="0.805" stop-color="#2B62F6"/>
</linearGradient>
</defs>
</svg>
