<svg width="600" height="455" viewBox="0 0 600 455" fill="none" xmlns="http://www.w3.org/2000/svg">
<path opacity="0.3" d="M370.343 412.486C345.567 422.921 320.949 433.715 296.734 445.248C253.81 465.684 201.7 450.448 175.588 409.772L16.2681 161.596C8.82407 150.116 3.92037 137.177 1.88524 123.647C-0.149885 110.117 0.73078 96.3088 4.46825 83.147C8.17399 69.7839 14.6527 57.3513 23.4829 46.6587C32.3131 35.9661 43.2968 27.2533 55.7183 21.0879C173.375 -37.2184 295.919 -85.0941 421.941 -121.989C430.939 -124.632 440.268 -125.981 449.647 -125.996C467.771 -125.964 485.523 -120.852 500.889 -111.24C512.569 -104.106 522.595 -94.5663 530.299 -83.255C538.004 -71.9437 543.21 -59.1207 545.572 -45.64L597.29 241.766L597.778 244.491C606.368 292.252 578.33 338.947 532.542 353.109C511.85 359.515 491.233 366.336 470.695 373.571C453.831 379.491 437.057 385.704 420.369 392.211C403.605 398.723 386.93 405.481 370.343 412.486Z" fill="url(#paint0_linear_90_2206)"/>
<defs>
<linearGradient id="paint0_linear_90_2206" x1="88.1989" y1="-113.23" x2="637.334" y2="497.911" gradientUnits="userSpaceOnUse">
<stop stop-color="white"/>
<stop offset="0.805" stop-color="#2B62F6"/>
</linearGradient>
</defs>
</svg>
