<svg viewBox="0 0 132 30" fill="none" xmlns="http://www.w3.org/2000/svg">
  <path
    d="M34.6589 17.4796L30.2246 10.5727C29.4906 9.4256 28.3643 8.58469 27.0559 8.2069C25.7475 7.82911 24.3463 7.94028 23.1139 8.51962C22.679 8.72736 22.2402 8.92443 21.7956 9.11857L20.9918 4.6531C20.8594 3.92148 20.5841 3.2231 20.1818 2.59785C19.7795 1.9726 19.2579 1.43275 18.6469 1.00907C18.0359 0.585398 17.3475 0.286211 16.6209 0.128622C15.8942 -0.0289669 15.1437 -0.0418772 14.4121 0.0906134C14.2155 0.125426 14.0211 0.171113 13.8296 0.22748C10.1568 1.30366 6.5856 2.70042 3.15724 4.40168C2.48989 4.73134 1.89401 5.18924 1.40365 5.74922C0.91328 6.30921 0.538026 6.9603 0.299322 7.66533C0.0606177 8.37035 -0.0368597 9.11549 0.0124497 9.85819C0.0617591 10.6009 0.256884 11.3266 0.586697 11.9939C0.677671 12.1791 0.77912 12.359 0.890545 12.5327L5.32395 19.4395C5.83505 20.2311 6.53666 20.8818 7.36449 21.3319C8.19231 21.7821 9.11987 22.0172 10.0622 22.0159C10.8764 21.9671 11.6749 21.7697 12.4182 21.4334C12.8725 21.2597 13.3132 21.0772 13.7559 20.8811L14.5606 25.3465C14.6931 26.0784 14.9685 26.777 15.3711 27.4024C15.7736 28.0278 16.2955 28.5678 16.9068 28.9914C17.518 29.4151 18.2068 29.7142 18.9337 29.8717C19.6606 30.0291 20.4114 30.0418 21.1432 29.909C21.3374 29.874 21.5295 29.8286 21.7189 29.7731C25.3905 28.6989 28.961 27.3051 32.3893 25.6076C33.0568 25.2778 33.6527 24.8197 34.1431 24.2595C34.6334 23.6994 35.0087 23.0481 35.2474 22.3429C35.4861 21.6377 35.5836 20.8925 35.5342 20.1496C35.4849 19.4068 35.2897 18.6809 34.9599 18.0135C34.8686 17.8289 34.7675 17.6494 34.657 17.4757L34.6589 17.4796ZM11.1737 18.7532C10.5889 18.9939 9.93969 19.0282 9.33285 18.8505C8.72602 18.6728 8.19782 18.2937 7.83527 17.7757L3.44555 10.9377C3.24072 10.6214 3.10576 10.265 3.04968 9.89237C2.9936 9.51973 3.01768 9.13941 3.12035 8.77682C3.22184 8.40879 3.39973 8.06627 3.64243 7.77156C3.88512 7.47685 4.18716 7.2366 4.5289 7.0664C7.77238 5.45958 11.1506 4.14045 14.6247 3.1242C14.9867 3.01745 15.3672 2.98817 15.7413 3.03823C16.1154 3.08828 16.4748 3.21656 16.7961 3.41473C17.1173 3.6129 17.3932 3.8765 17.6058 4.18838C17.8184 4.50026 17.963 4.85344 18.0301 5.22489L19.4512 13.1433L19.4648 13.219C19.5504 13.8478 19.4189 14.487 19.0923 15.0311C18.7656 15.5752 18.2632 15.9917 17.668 16.2118C17.1341 16.4574 11.8736 18.5154 11.1766 18.7532H11.1737Z"
    fill="#1D2080" />
  <path
    d="M32.1108 19.0649C32.3156 19.3812 32.4504 19.7376 32.5062 20.1103C32.5619 20.483 32.5373 20.8634 32.4341 21.2258C32.3332 21.5942 32.1555 21.9371 31.9125 22.2319C31.6696 22.5268 31.367 22.7668 31.0246 22.9362C27.782 24.5464 24.4036 25.8673 20.9288 26.8833C20.5894 26.9825 20.2339 27.0139 19.8824 26.9757C19.5309 26.9375 19.1904 26.8304 18.8803 26.6606C18.5702 26.4907 18.2966 26.2615 18.0751 25.9859C17.8536 25.7103 17.6886 25.3937 17.5894 25.0544C17.5633 24.9653 17.5419 24.8749 17.5254 24.7835L16.6226 19.7697C17.2972 19.5328 17.9816 19.2522 18.667 18.9843C19.9312 18.569 21.0071 17.7184 21.7029 16.584C22.3987 15.4497 22.6693 14.1052 22.4665 12.79L22.3548 12.159C23.0344 11.8677 23.7139 11.5765 24.3827 11.2504C24.9632 10.9814 25.6216 10.9325 26.2354 11.1129C26.8492 11.2932 27.3765 11.6906 27.7192 12.2308L32.1108 19.0649Z"
    fill="#DDDDDE" />
  <path
    d="M53.706 20.9092C52.7904 21.1214 51.853 21.225 50.9131 21.2179C49.9302 21.228 48.9534 21.062 48.029 20.7276C47.1886 20.4257 46.4175 19.9579 45.7614 19.3521C45.1239 18.7544 44.6187 18.0299 44.2781 17.2251C43.5615 15.444 43.5647 13.4543 44.2868 11.6754C44.63 10.8682 45.1409 10.1432 45.7856 9.54852C46.4386 8.95475 47.2027 8.49614 48.0339 8.19917C48.9269 7.87894 49.8693 7.71857 50.818 7.72544C51.7956 7.71679 52.7677 7.87299 53.6933 8.1875C54.2129 8.36343 54.709 8.60204 55.1708 8.89808C55.2614 8.95931 55.3377 9.03947 55.3944 9.133C55.4511 9.22653 55.4869 9.33124 55.4992 9.43992C55.5116 9.54859 55.5003 9.65866 55.466 9.76253C55.4318 9.86641 55.3755 9.96163 55.3009 10.0417L54.3651 11.0891C54.2337 11.2305 54.0542 11.318 53.8618 11.3343C53.6694 11.3506 53.4779 11.2947 53.3245 11.1774C53.111 11.028 52.8834 10.8999 52.6449 10.795C52.1035 10.5647 51.5198 10.4506 50.9316 10.46C50.4066 10.4547 49.886 10.5565 49.4017 10.7591C48.9437 10.9514 48.5295 11.2347 48.1843 11.5919C47.836 11.955 47.5637 12.3841 47.3835 12.8539C47.1884 13.3655 47.0913 13.9091 47.0971 14.4566C47.0913 15.0102 47.1786 15.5609 47.3553 16.0855C47.5138 16.565 47.7772 17.0032 48.1263 17.3681C48.4754 17.733 48.9015 18.0154 49.3735 18.1949C49.9178 18.4024 50.4967 18.5039 51.0791 18.4939C51.4305 18.4959 51.7814 18.4697 52.1285 18.4153L52.445 18.3629C52.6133 18.335 52.7664 18.2484 52.8768 18.1182C52.9872 17.9881 53.0478 17.8229 53.0478 17.6523V16.5845C53.0475 16.3807 52.9664 16.1854 52.8223 16.0415C52.6781 15.8975 52.4827 15.8166 52.279 15.8166H51.3276C51.1239 15.8163 50.9286 15.7353 50.7846 15.5911C50.6406 15.4469 50.5598 15.2515 50.5598 15.0478V14.0858C50.5598 13.8822 50.6407 13.6868 50.7847 13.5428C50.9287 13.3988 51.124 13.3179 51.3276 13.3179H55.1728C55.3765 13.3179 55.5719 13.3988 55.7161 13.5428C55.8602 13.6868 55.9413 13.8821 55.9416 14.0858V19.619C55.9434 19.7655 55.9026 19.9094 55.8242 20.0331C55.7458 20.1568 55.6331 20.2551 55.4999 20.316C54.9203 20.5654 54.32 20.7639 53.706 20.9092Z"
    fill="#1D2080" />
  <path
    d="M68.4224 12.0171C68.4448 12.6745 68.2991 13.3267 67.9992 13.912C67.727 14.4141 67.3344 14.8408 66.8566 15.1536C66.3489 15.4789 65.7875 15.7117 65.1986 15.8409C64.5576 15.9874 63.902 16.0604 63.2444 16.0583H62.3213C62.2368 16.0582 62.1531 16.0748 62.075 16.107C61.9969 16.1392 61.926 16.1865 61.8662 16.2462C61.8064 16.3059 61.759 16.3768 61.7267 16.4548C61.6943 16.5329 61.6777 16.6165 61.6777 16.701V20.2491C61.6779 20.3334 61.6615 20.4169 61.6294 20.4948C61.5974 20.5728 61.5502 20.6436 61.4907 20.7033C61.4312 20.763 61.3605 20.8104 61.2826 20.8427C61.2047 20.875 61.1213 20.8917 61.037 20.8917H59.1692C59.0849 20.8918 59.0014 20.8753 58.9234 20.8431C58.8454 20.8109 58.7746 20.7637 58.7149 20.7041C58.6552 20.6445 58.6079 20.5737 58.5756 20.4958C58.5432 20.4179 58.5266 20.3344 58.5266 20.25V8.7166C58.5266 8.63221 58.5432 8.54862 58.5755 8.47066C58.6078 8.39269 58.6552 8.32183 58.7148 8.26216C58.7745 8.20248 58.8453 8.15516 58.9233 8.12286C59.0013 8.09056 59.0849 8.07392 59.1692 8.07392H63.3163C63.9885 8.0696 64.6591 8.13931 65.316 8.28171C65.8938 8.40267 66.4442 8.62979 66.9391 8.95153C67.3976 9.25806 67.7713 9.67545 68.0254 10.165C68.3067 10.7408 68.443 11.3766 68.4224 12.0171ZM65.2714 12.0355C65.2823 11.7754 65.2182 11.5177 65.0869 11.293C64.9638 11.1008 64.792 10.9447 64.5889 10.8406C64.3663 10.7278 64.1259 10.6543 63.8783 10.6231C63.6064 10.5869 63.3324 10.5691 63.0581 10.5698H62.3193C62.2349 10.5696 62.1513 10.5861 62.0733 10.6183C61.9953 10.6505 61.9244 10.6977 61.8646 10.7573C61.8049 10.8169 61.7574 10.8876 61.725 10.9655C61.6926 11.0435 61.6758 11.127 61.6757 11.2114V12.948C61.6757 13.1185 61.7434 13.282 61.8639 13.4025C61.9845 13.523 62.1479 13.5907 62.3184 13.5907H62.9979C63.2822 13.5916 63.5661 13.5675 63.8463 13.5188C64.1016 13.4758 64.3478 13.3899 64.5744 13.2645C64.782 13.1518 64.9567 12.9868 65.0811 12.7859C65.2132 12.5591 65.2792 12.2998 65.2714 12.0375V12.0355Z"
    fill="#1D2080" />
  <path
    d="M80.9839 18.169C80.7299 18.7885 80.3428 19.3446 79.8501 19.7979C79.3335 20.2658 78.7289 20.6261 78.0717 20.858C76.5679 21.3637 74.94 21.3637 73.4363 20.858C72.7877 20.6274 72.1931 20.2667 71.689 19.7979C71.2068 19.3414 70.8296 18.7857 70.5833 18.169C70.3178 17.4979 70.1859 16.7813 70.195 16.0596V9.22452C70.1953 8.91977 70.3165 8.62758 70.5319 8.41209C70.7474 8.1966 71.0396 8.07545 71.3444 8.0752H72.1792C72.3301 8.0752 72.4795 8.10494 72.6189 8.16271C72.7583 8.22048 72.885 8.30517 72.9916 8.41191C73.0983 8.51865 73.1828 8.64533 73.2405 8.78477C73.2981 8.92421 73.3277 9.07363 73.3276 9.22452V15.8033C73.3265 16.1402 73.3733 16.4755 73.4664 16.7993C73.5537 17.104 73.6976 17.3895 73.8906 17.6409C74.0903 17.8965 74.3501 18.0986 74.6469 18.2292C75.3747 18.5185 76.1857 18.5185 76.9135 18.2292C77.2116 18.0965 77.4738 17.8949 77.6785 17.6409C77.8754 17.3921 78.0194 17.1057 78.1017 16.7993C78.1891 16.4746 78.2329 16.1396 78.2318 15.8033V9.22263C78.2318 8.9178 78.3529 8.62545 78.5685 8.4099C78.784 8.19435 79.0764 8.07324 79.3812 8.07324H80.2335C80.5383 8.07324 80.8307 8.19435 81.0462 8.4099C81.2618 8.62545 81.3829 8.9178 81.3829 9.22263V16.0567C81.3925 16.7804 81.2568 17.4987 80.9839 18.169Z"
    fill="#1D2080" />
  <path
    d="M96.471 20.5821C96.1664 20.5821 95.8742 20.4611 95.6586 20.2458C95.4431 20.0305 95.3219 19.7384 95.3216 19.4337V19.424L95.3867 11.5114H95.3352L92.2221 19.8337C92.1403 20.0528 91.9934 20.2418 91.8011 20.375C91.6088 20.5083 91.3804 20.5795 91.1465 20.5792H90.5368C90.301 20.5795 90.0708 20.507 89.8776 20.3717C89.6844 20.2364 89.5377 20.0448 89.4574 19.823L86.4325 11.5095H86.3772L86.4422 19.4211C86.4435 19.572 86.415 19.7217 86.3584 19.8616C86.3019 20.0014 86.2183 20.1288 86.1124 20.2363C86.0066 20.3439 85.8806 20.4295 85.7416 20.4884C85.6027 20.5472 85.4535 20.5781 85.3026 20.5792H84.6328C84.4819 20.5793 84.3325 20.5497 84.1931 20.492C84.0537 20.4344 83.9271 20.3498 83.8204 20.2431C83.7138 20.1365 83.6292 20.0098 83.5715 19.8704C83.5139 19.7311 83.4842 19.5817 83.4844 19.4308V8.91376C83.4842 8.76287 83.5138 8.61339 83.5715 8.47395C83.6292 8.33451 83.7137 8.20783 83.8204 8.10109C83.927 7.99435 84.0537 7.90966 84.1931 7.85189C84.3325 7.79412 84.4819 7.76438 84.6328 7.76438H87.1567C87.393 7.76424 87.6237 7.83697 87.8172 7.97264C88.0107 8.10831 88.1577 8.30032 88.2381 8.52254L90.9348 15.9837H91.0086L93.5831 8.53806C93.6607 8.31161 93.8071 8.11506 94.0018 7.97584C94.1966 7.83662 94.4299 7.76168 94.6693 7.76147H97.2602C97.565 7.76173 97.8572 7.88288 98.0727 8.09837C98.2882 8.31386 98.4093 8.60611 98.4096 8.91086V19.4308C98.4093 19.7355 98.2881 20.0276 98.0726 20.2429C97.8571 20.4582 97.5649 20.5792 97.2602 20.5792H96.473L96.471 20.5821Z"
    fill="#1D2080" />
  <path
    d="M101.527 19.7426V9.22263C101.527 8.9178 101.648 8.62545 101.863 8.4099C102.079 8.19435 102.371 8.07324 102.676 8.07324H103.544C103.849 8.07324 104.141 8.19421 104.356 8.40954C104.572 8.62488 104.693 8.91696 104.693 9.22162V19.7416C104.693 20.046 104.573 20.338 104.357 20.5533C104.142 20.7686 103.85 20.8898 103.546 20.89H102.672C102.521 20.8901 102.372 20.8605 102.233 20.8029C102.093 20.7452 101.966 20.6607 101.86 20.554C101.753 20.4474 101.668 20.3207 101.61 20.1813C101.553 20.0419 101.523 19.8925 101.523 19.7416L101.527 19.7426Z"
    fill="#1D2080" />
  <path
    d="M116.316 20.891C116.122 20.8903 115.931 20.8405 115.762 20.7463C115.592 20.6521 115.449 20.5166 115.345 20.3522L110.431 12.5086H110.375L110.438 19.7319C110.44 19.8827 110.411 20.0323 110.355 20.1722C110.299 20.3121 110.215 20.4394 110.109 20.5471C110.004 20.6547 109.878 20.7405 109.739 20.7995C109.6 20.8585 109.451 20.8896 109.301 20.891H108.539C108.235 20.891 107.942 20.77 107.727 20.5547C107.511 20.3394 107.39 20.0473 107.389 19.7426V9.22263C107.389 8.91771 107.511 8.62536 107.726 8.40984C107.942 8.19432 108.235 8.07324 108.539 8.07324H110.34C110.534 8.07366 110.725 8.1233 110.895 8.21752C111.065 8.31173 111.208 8.44746 111.311 8.612L116.206 16.4372H116.261L116.198 9.23234C116.196 9.08137 116.225 8.93158 116.281 8.79159C116.338 8.65159 116.421 8.52413 116.527 8.41648C116.633 8.30882 116.759 8.22308 116.898 8.16419C117.037 8.1053 117.186 8.07438 117.337 8.07324H118.098C118.403 8.07324 118.695 8.19424 118.91 8.4096C119.126 8.62497 119.247 8.91705 119.247 9.22162V19.7416C119.247 19.8923 119.217 20.0415 119.16 20.1808C119.102 20.3201 119.018 20.4466 118.911 20.5532C118.805 20.6599 118.679 20.7445 118.539 20.8023C118.4 20.8601 118.251 20.8899 118.1 20.89H116.309L116.316 20.891Z"
    fill="#1D2080" />
  <path
    d="M121.948 20.0532V8.91097C121.948 8.80092 121.969 8.69195 122.011 8.59026C122.053 8.48856 122.115 8.39618 122.193 8.31836C122.271 8.24054 122.363 8.17881 122.465 8.13676C122.566 8.0947 122.675 8.07312 122.786 8.07324H129.883C129.993 8.07312 130.102 8.09466 130.203 8.13664C130.305 8.17862 130.397 8.24024 130.475 8.31794C130.553 8.39565 130.615 8.48789 130.657 8.58949C130.699 8.69108 130.721 8.80001 130.721 8.91003V9.84096C130.721 9.95097 130.7 10.0599 130.658 10.1616C130.616 10.2632 130.554 10.3555 130.476 10.4333C130.398 10.5111 130.306 10.5728 130.204 10.6149C130.103 10.657 129.994 10.6787 129.884 10.6787H125.569C125.414 10.6787 125.266 10.7401 125.157 10.8493C125.048 10.9586 124.986 11.1067 124.986 11.2612V12.5231C124.986 12.6776 125.048 12.8257 125.157 12.935C125.266 13.0442 125.414 13.1056 125.569 13.1056H129.57C129.792 13.1056 130.005 13.1939 130.162 13.351C130.32 13.5081 130.408 13.7212 130.408 13.9433V14.7481C130.408 14.9703 130.32 15.1833 130.162 15.3405C130.005 15.4976 129.792 15.5859 129.57 15.5859H125.569C125.414 15.5859 125.266 15.6472 125.157 15.7564C125.048 15.8657 124.986 16.0138 124.986 16.1683V17.6681C124.986 17.8226 125.048 17.9707 125.157 18.08C125.266 18.1892 125.414 18.2506 125.569 18.2506H130.215C130.325 18.2504 130.434 18.272 130.535 18.3141C130.637 18.3561 130.729 18.4178 130.807 18.4956C130.885 18.5734 130.947 18.6659 130.989 18.7676C131.031 18.8693 131.053 18.9782 131.052 19.0883V20.059C131.053 20.1691 131.031 20.2781 130.989 20.3798C130.947 20.4815 130.885 20.5739 130.807 20.6517C130.729 20.7295 130.637 20.7913 130.535 20.8333C130.434 20.8754 130.325 20.897 130.215 20.8968H122.786C122.675 20.897 122.566 20.8754 122.465 20.8333C122.363 20.7913 122.271 20.7295 122.193 20.6517C122.115 20.5739 122.053 20.4815 122.011 20.3798C121.969 20.2781 121.948 20.1691 121.948 20.059V20.0532Z"
    fill="#1D2080" />
</svg>