<svg width="30" height="30" viewBox="0 0 30 30" fill="none" xmlns="http://www.w3.org/2000/svg">
  <path
    d="M8.24039 22.7274L8.00117 25.1732L9.20778 25.4395L9.89362 23.6698C11.3082 24.2997 12.8394 24.6252 14.3879 24.6252C15.9364 24.6252 17.4677 24.2997 18.8823 23.6698L19.5681 25.4395L20.539 25.1732V22.7274C21.4325 22.1023 22.1919 21.3048 22.7726 20.3818C23.3533 19.4589 23.7435 18.4291 23.9203 17.353C21.78 18.4093 19.357 18.7497 17.0085 18.3239C16.124 18.1608 15.2565 17.9161 14.4171 17.593C9.08298 15.5723 5.54074 16.3031 3.69336 16.7206V17.7699H4.89655C5.33677 19.7889 6.53325 21.5628 8.24039 22.7274Z"
    fill="url(#paint0_linear_96_2572)" />
  <path
    d="M9.20941 14.7909C9.57478 14.7909 9.87098 14.4947 9.87098 14.1293C9.87098 13.764 9.57478 13.4678 9.20941 13.4678C8.84404 13.4678 8.54785 13.764 8.54785 14.1293C8.54785 14.4947 8.84404 14.7909 9.20941 14.7909Z"
    fill="url(#paint1_linear_96_2572)" />
  <path d="M18.5617 9.30713H13.4023V10.597H18.5617V9.30713Z" fill="url(#paint2_linear_96_2572)" />
  <path
    d="M27.704 16.5585C27.4312 16.4475 27.1873 16.2806 26.9896 16.0695C27.2834 15.7135 27.4353 15.2694 27.4183 14.8162C27.4522 14.565 27.404 14.3099 27.2805 14.0858C27.157 13.8617 26.9641 13.6796 26.7282 13.5643C26.5864 13.51 26.4326 13.4903 26.2808 13.5071C26.129 13.524 25.9839 13.5767 25.8588 13.6606C25.7202 13.7499 25.6044 13.8679 25.5204 14.0061C25.4364 14.1443 25.3863 14.2989 25.3738 14.4583C25.36 14.9554 25.4961 15.4457 25.766 15.8707C25.6467 15.9058 25.5238 15.9286 25.3995 15.939C25.3809 15.5147 25.3274 15.0925 25.2395 14.6762C25.2274 14.6284 25.2152 14.5786 25.2045 14.528L25.1995 14.5069C24.8852 13.275 24.2766 12.1295 23.4215 11.1602C22.5228 10.1366 21.4142 9.29979 20.1641 8.70153C18.8346 8.05792 17.3889 7.66224 15.9045 7.53567C15.5302 7.50288 15.1488 7.48581 14.7709 7.48581H14.7223C13.2545 7.48488 11.7992 7.74349 10.4298 8.24866C9.82972 7.52657 9.11905 6.89525 8.32183 6.37597L7.54676 5.9231L6.71457 10.5175C5.80574 11.3731 5.09932 12.4051 4.64297 13.5438H3V18.3369H4.39938C4.93779 20.1888 6.11141 21.8142 7.7318 22.9519V25.4911L9.73909 26.0608L10.4327 24.3615C13.2212 25.3704 16.2991 25.3704 19.0876 24.3615L19.802 26.1154L21.7878 25.3327V22.9224L22.0414 22.7319C22.2329 22.5885 22.4086 22.4588 22.4486 22.4219C22.7488 22.1641 23.0319 21.8888 23.2965 21.5975C23.8227 21.0212 24.2657 20.3801 24.6138 19.6913C25.0637 18.782 25.3275 17.7989 25.391 16.7948C25.7068 16.7773 26.0164 16.7026 26.3032 16.5749C26.6125 16.9218 27.0044 17.1926 27.4461 17.3644C27.4888 17.3788 27.5337 17.3862 27.579 17.3862C27.6694 17.385 27.7569 17.3561 27.8288 17.3037C27.9007 17.2513 27.9531 17.1783 27.9783 17.0953C28.014 16.9893 28.0054 16.8741 27.9543 16.7741C27.9031 16.674 27.8134 16.5967 27.704 16.5585ZM23.4779 19.1128C23.1818 19.6981 22.8051 20.243 22.3579 20.7329C22.131 20.9831 21.8881 21.2196 21.6307 21.4411C21.5907 21.4732 21.4407 21.5859 21.2792 21.7075C20.6649 22.1685 20.4349 22.3406 20.5149 22.6998V24.4606L20.4877 24.4715L19.7691 22.7046L19.1841 22.9519C17.7869 23.5391 16.2774 23.8423 14.7512 23.8423C13.2251 23.8423 11.7155 23.5391 10.3184 22.9519L9.73407 22.7046L8.99118 24.5248H8.98547V22.2566L8.69043 22.0681C7.05406 21.0126 5.90668 19.3943 5.48732 17.5502L5.37161 17.0604H4.25367V14.8217H5.5202L5.66735 14.392C6.0648 13.2218 6.76684 12.1673 7.70751 11.3276L7.87324 11.1807L8.43968 8.05474C8.91569 8.47011 9.35289 8.92436 9.74624 9.41244L10.0405 9.77586L10.4691 9.59894C11.8114 9.04675 13.2575 8.76229 14.7188 8.76298H14.7494C15.0972 8.75808 15.445 8.77316 15.791 8.80808C17.1246 8.92153 18.4234 9.27707 19.6177 9.85573C20.7146 10.3812 21.6871 11.1162 22.475 12.0153C23.1922 12.8281 23.7033 13.7883 23.9687 14.821C23.9816 14.8804 23.9959 14.9377 24.0052 14.9726C24.3008 16.3709 24.1159 17.8231 23.4779 19.1128ZM26.4446 15.3564C26.2883 15.103 26.2066 14.8139 26.2082 14.5198C26.2126 14.491 26.2233 14.4635 26.2397 14.439C26.2561 14.4145 26.2777 14.3936 26.3032 14.3777C26.3278 14.3606 26.3571 14.3507 26.3874 14.349C26.399 14.3489 26.4104 14.351 26.421 14.3552C26.5325 14.3989 26.5717 14.6195 26.5717 14.8128C26.577 15.0022 26.5333 15.1898 26.4446 15.3592V15.3564Z"
    fill="url(#paint3_linear_96_2572)" />
  <path
    d="M16.3436 8.72908C17.4667 8.72908 18.3771 7.81863 18.3771 6.69553C18.3771 5.57244 17.4667 4.66199 16.3436 4.66199C15.2205 4.66199 14.3101 5.57244 14.3101 6.69553C14.3101 7.81863 15.2205 8.72908 16.3436 8.72908Z"
    fill="white" />
  <path
    d="M16.3447 9.38964C15.8117 9.38992 15.2905 9.23212 14.8472 8.93622C14.4038 8.64031 14.0582 8.21958 13.854 7.72724C13.6498 7.23489 13.5962 6.69303 13.7 6.17021C13.8038 5.6474 14.0602 5.16712 14.437 4.79007C14.8137 4.41303 15.2938 4.15614 15.8166 4.05196C16.3393 3.94779 16.8812 4.001 17.3737 4.20481C17.8662 4.40862 18.2872 4.75388 18.5834 5.19697C18.8797 5.64007 19.0379 6.1611 19.038 6.69411C19.0375 7.40846 18.7536 8.09343 18.2487 8.59875C17.7437 9.10408 17.059 9.38851 16.3447 9.38964ZM16.3447 5.32326C16.0732 5.32312 15.8078 5.40343 15.5821 5.55414C15.3563 5.70484 15.1803 5.91912 15.0763 6.16986C14.9723 6.42061 14.9451 6.69659 14.9979 6.96283C15.0508 7.22907 15.1814 7.47363 15.3733 7.66561C15.5652 7.8576 15.8097 7.98843 16.0759 8.04144C16.3422 8.09445 16.6182 8.06725 16.869 7.96341C17.1197 7.85957 17.3341 7.68369 17.4849 7.458C17.6357 7.23231 17.7163 6.96694 17.7163 6.6955C17.7159 6.33178 17.5712 5.98307 17.3141 5.72582C17.057 5.46857 16.7084 5.32382 16.3447 5.32326Z"
    fill="url(#paint4_linear_96_2572)" />
  <defs>
    <linearGradient id="paint0_linear_96_2572" x1="13.8068" y1="32.7425" x2="13.8068" y2="2.82212"
      gradientUnits="userSpaceOnUse">
      <stop stop-color="white" />
      <stop offset="0.249" stop-color="#E6EDFE" />
      <stop offset="0.706" stop-color="#2B62F6" />
    </linearGradient>
    <linearGradient id="paint1_linear_96_2572" x1="10.7826" y1="12.5561" x2="7.53831" y2="15.8004"
      gradientUnits="userSpaceOnUse">
      <stop stop-color="white" />
      <stop offset="0.102" stop-color="#E6EDFE" />
      <stop offset="0.713" stop-color="#2B62F6" />
    </linearGradient>
    <linearGradient id="paint2_linear_96_2572" x1="24.6807" y1="2.30976" x2="22.6903" y2="30.2856"
      gradientUnits="userSpaceOnUse">
      <stop stop-color="white" />
      <stop offset="0.102" stop-color="#E6EDFE" />
      <stop offset="0.87" stop-color="#2B62F6" />
    </linearGradient>
    <linearGradient id="paint3_linear_96_2572" x1="34.6" y1="-10.2711" x2="8.30404" y2="42.0748"
      gradientUnits="userSpaceOnUse">
      <stop offset="0.285" stop-color="#E6EDFE" />
      <stop offset="0.772" stop-color="#2B62F6" />
    </linearGradient>
    <linearGradient id="paint4_linear_96_2572" x1="20.8651" y1="2.04356" x2="12.6459" y2="10.4998"
      gradientUnits="userSpaceOnUse">
      <stop offset="0.261" stop-color="#E6EDFE" />
      <stop offset="0.83" stop-color="#2B62F6" />
    </linearGradient>
  </defs>
</svg>