<svg width="30" height="30" viewBox="0 0 30 30" fill="none" xmlns="http://www.w3.org/2000/svg">
  <path
    d="M25.125 3H4.875C3.83947 3 3 3.83947 3 4.875V25.125C3 26.1605 3.83947 27 4.875 27H25.125C26.1605 27 27 26.1605 27 25.125V4.875C27 3.83947 26.1605 3 25.125 3Z"
    fill="white" />
  <path
    d="M25.125 4.125H4.875C4.46079 4.125 4.125 4.46079 4.125 4.875V25.125C4.125 25.5392 4.46079 25.875 4.875 25.875H25.125C25.5392 25.875 25.875 25.5392 25.875 25.125V4.875C25.875 4.46079 25.5392 4.125 25.125 4.125Z"
    stroke="#3569F5" stroke-width="3" stroke-miterlimit="10" />
  <path
    d="M23.7748 12.048C23.7736 12.4582 23.6101 12.8513 23.3201 13.1413C23.03 13.4314 22.637 13.5948 22.2268 13.596C22.0933 13.5981 21.9603 13.5799 21.8323 13.542L19.0775 16.2893C19.1155 16.4201 19.1337 16.5558 19.1315 16.692C19.1361 16.8981 19.0994 17.1031 19.0236 17.2948C18.9479 17.4865 18.8346 17.6612 18.6905 17.8086C18.5463 17.9559 18.3742 18.073 18.1842 18.153C17.9941 18.2329 17.7901 18.2741 17.5839 18.2741C17.3777 18.2741 17.1737 18.2329 16.9836 18.153C16.7936 18.073 16.6215 17.9559 16.4773 17.8086C16.3332 17.6612 16.2199 17.4865 16.1441 17.2948C16.0684 17.1031 16.0317 16.8981 16.0363 16.692C16.0341 16.5558 16.0523 16.4201 16.0903 16.2893L14.117 14.316C13.8536 14.3882 13.5757 14.3882 13.3123 14.316L9.79102 17.844C9.82894 17.972 9.84714 18.105 9.84502 18.2385C9.84502 18.5447 9.75424 18.844 9.58414 19.0985C9.41404 19.3531 9.17228 19.5515 8.88942 19.6687C8.60656 19.7858 8.29531 19.8165 7.99502 19.7568C7.69474 19.697 7.41891 19.5496 7.20242 19.3331C6.98593 19.1166 6.8385 18.8408 6.77877 18.5405C6.71904 18.2402 6.74969 17.929 6.86686 17.6461C6.98402 17.3633 7.18243 17.1215 7.437 16.9514C7.69157 16.7813 7.99086 16.6905 8.29702 16.6905C8.4305 16.6884 8.56353 16.7066 8.69152 16.7445L12.2248 13.224C12.1859 13.0946 12.1665 12.9601 12.167 12.825C12.1759 12.4205 12.3429 12.0355 12.6322 11.7525C12.9214 11.4695 13.31 11.3111 13.7146 11.3111C14.1193 11.3111 14.5079 11.4695 14.7971 11.7525C15.0864 12.0355 15.2534 12.4205 15.2623 12.825C15.2644 12.9612 15.2462 13.097 15.2083 13.2278L17.1815 15.201C17.4449 15.1288 17.7229 15.1288 17.9863 15.201L20.7343 12.4425C20.6964 12.3145 20.6782 12.1815 20.6803 12.048C20.6757 11.8419 20.7124 11.637 20.7881 11.4452C20.8639 11.2535 20.9772 11.0788 21.1213 10.9315C21.2655 10.7841 21.4376 10.667 21.6276 10.5871C21.8177 10.5071 22.0217 10.4659 22.2279 10.4659C22.4341 10.4659 22.6381 10.5071 22.8282 10.5871C23.0182 10.667 23.1903 10.7841 23.3345 10.9315C23.4786 11.0788 23.5919 11.2535 23.6677 11.4452C23.7434 11.637 23.7801 11.8419 23.7755 12.048H23.7748Z"
    fill="#3569F5" />
</svg>