<svg width="30" height="30" viewBox="0 0 30 30" fill="none" xmlns="http://www.w3.org/2000/svg">
  <path fill-rule="evenodd" clip-rule="evenodd"
    d="M9.82241 25.1783C11.228 25.6744 13.2353 26 15.5 26C17.7647 26 19.772 25.6744 21.1776 25.1783C21.8849 24.9287 22.3862 24.6545 22.6913 24.3999C23.0009 24.1417 23 24.0019 23 24V24H25C25 24.8276 24.5222 25.477 23.9727 25.9355C23.4176 26.3988 22.6741 26.7711 21.8432 27.0643C20.1725 27.654 17.9297 28 15.5 28C13.0703 28 10.8275 27.654 9.15677 27.0643C8.3259 26.7711 7.58241 26.3988 7.02728 25.9355C6.47778 25.477 6 24.8276 6 24H8L8 24C7.99999 24.0019 7.99913 24.1417 8.30866 24.3999C8.61378 24.6545 9.11509 24.9287 9.82241 25.1783Z"
    fill="#A0B8F8" />
  <path fill-rule="evenodd" clip-rule="evenodd"
    d="M9.82241 22.1783C11.228 22.6744 13.2353 23 15.5 23C17.7647 23 19.772 22.6744 21.1776 22.1783C21.8849 21.9287 22.3862 21.6545 22.6913 21.3999C23.0009 21.1417 23 21.0019 23 21V21H25C25 21.8276 24.5222 22.477 23.9727 22.9355C23.4176 23.3988 22.6741 23.7711 21.8432 24.0643C20.1725 24.654 17.9297 25 15.5 25C13.0703 25 10.8275 24.654 9.15677 24.0643C8.3259 23.7711 7.58241 23.3988 7.02728 22.9355C6.47778 22.477 6 21.8276 6 21H8L8 21C7.99999 21.0019 7.99913 21.1417 8.30866 21.3999C8.61378 21.6545 9.11509 21.9287 9.82241 22.1783Z"
    fill="#7095F8" />
  <path fill-rule="evenodd" clip-rule="evenodd"
    d="M9.82241 18.1783C11.228 18.6744 13.2353 19 15.5 19C17.7647 19 19.772 18.6744 21.1776 18.1783C21.8849 17.9287 22.3862 17.6545 22.6913 17.3999C23.0009 17.1417 23 17.0019 23 17V17H25C25 17.8276 24.5222 18.477 23.9727 18.9355C23.4176 19.3988 22.6741 19.7711 21.8432 20.0643C20.1725 20.654 17.9297 21 15.5 21C13.0703 21 10.8275 20.654 9.15677 20.0643C8.3259 19.7711 7.58241 19.3988 7.02728 18.9355C6.47778 18.477 6 17.8276 6 17H8L8 17C7.99999 17.0019 7.99913 17.1417 8.30866 17.3999C8.61378 17.6545 9.11509 17.9287 9.82241 18.1783Z"
    fill="#2B62F6" />
  <path fill-rule="evenodd" clip-rule="evenodd"
    d="M9.82241 14.1783C11.228 14.6744 13.2353 15 15.5 15C17.7647 15 19.772 14.6744 21.1776 14.1783C21.8849 13.9287 22.3862 13.6545 22.6913 13.3999C23.0009 13.1417 23 13.0019 23 13V13H25C25 13.8276 24.5222 14.477 23.9727 14.9355C23.4176 15.3988 22.6741 15.7711 21.8432 16.0643C20.1725 16.654 17.9297 17 15.5 17C13.0703 17 10.8275 16.654 9.15677 16.0643C8.3259 15.7711 7.58241 15.3988 7.02728 14.9355C6.47778 14.477 6 13.8276 6 13H8L8 13C7.99999 13.0019 7.99913 13.1417 8.30866 13.3999C8.61378 13.6545 9.11509 13.9287 9.82241 14.1783Z"
    fill="#2B62F6" />
  <path fill-rule="evenodd" clip-rule="evenodd"
    d="M9.82241 10.1783C11.228 10.6744 13.2353 11 15.5 11C17.7647 11 19.772 10.6744 21.1776 10.1783C21.8849 9.92869 22.3862 9.65454 22.6913 9.39993C23.0009 9.14165 23 9.00188 23 9.00002V9H25C25 9.82764 24.5222 10.477 23.9727 10.9355C23.4176 11.3988 22.6741 11.7711 21.8432 12.0643C20.1725 12.654 17.9297 13 15.5 13C13.0703 13 10.8275 12.654 9.15677 12.0643C8.3259 11.7711 7.58241 11.3988 7.02728 10.9355C6.47778 10.477 6 9.82764 6 9H8L8 9.00002C7.99999 9.00189 7.99913 9.14165 8.30866 9.39993C8.61378 9.65454 9.11509 9.92869 9.82241 10.1783Z"
    fill="#2B62F6" />
  <path
    d="M25 5.5C25 7.433 20.7467 9 15.5 9C10.2533 9 6 7.433 6 5.5C6 3.567 10.2533 2 15.5 2C20.7467 2 25 3.567 25 5.5Z"
    fill="white" />
  <path fill-rule="evenodd" clip-rule="evenodd"
    d="M23.0631 5.22773C23.0634 5.22774 23.0617 5.23058 23.0574 5.23624C23.0608 5.23055 23.0629 5.22772 23.0631 5.22773ZM22.75 5.5C22.4915 5.3216 22.0928 5.11061 21.5261 4.90181C20.0806 4.36926 17.9504 4 15.5 4C13.0496 4 10.9194 4.36926 9.4739 4.90181C8.90716 5.11061 8.50852 5.3216 8.24999 5.5C8.50852 5.6784 8.90716 5.88939 9.4739 6.09819C10.9194 6.63074 13.0496 7 15.5 7C17.9504 7 20.0806 6.63074 21.5261 6.09819C22.0928 5.88939 22.4915 5.6784 22.75 5.5ZM7.93687 5.22773C7.9371 5.22772 7.93924 5.23055 7.94261 5.23624C7.93832 5.23058 7.93664 5.22774 7.93687 5.22773ZM7.93687 5.77227C7.93664 5.77226 7.93832 5.76942 7.94261 5.76376C7.93924 5.76945 7.9371 5.77228 7.93687 5.77227ZM23.0574 5.76376C23.0617 5.76942 23.0634 5.77226 23.0631 5.77227C23.0629 5.77228 23.0608 5.76945 23.0574 5.76376ZM15.5 9C20.7467 9 25 7.433 25 5.5C25 3.567 20.7467 2 15.5 2C10.2533 2 6 3.567 6 5.5C6 7.433 10.2533 9 15.5 9Z"
    fill="#2B62F6" />
  <path fill-rule="evenodd" clip-rule="evenodd" d="M6 24L6 5L8 5L8 24L6 24Z" fill="url(#paint0_linear_133_2120)" />
  <path fill-rule="evenodd" clip-rule="evenodd" d="M23 24L23 5L25 5L25 24L23 24Z" fill="url(#paint1_linear_133_2120)" />
  <defs>
    <linearGradient id="paint0_linear_133_2120" x1="7" y1="18.7586" x2="7" y2="23.6724" gradientUnits="userSpaceOnUse">
      <stop stop-color="#2B62F6" />
      <stop offset="1" stop-color="#A0B8F8" />
    </linearGradient>
    <linearGradient id="paint1_linear_133_2120" x1="23.5" y1="19.5893" x2="23.5" y2="24" gradientUnits="userSpaceOnUse">
      <stop stop-color="#2B62F6" />
      <stop offset="1" stop-color="#A0B8F8" />
    </linearGradient>
  </defs>
</svg>